/* XPM */
static char * fbx_review_icon_75x75_xpm[] = {
"33 33 812 2",
"  	c None",
". 	c #E2E3E9",
"+ 	c #E4E6EA",
"@ 	c #E6E8ED",
"# 	c #E9EBEF",
"$ 	c #EBECF1",
"% 	c #ECEDF2",
"& 	c #EDEFF4",
"* 	c #EFF0F5",
"= 	c #F0F1F6",
"- 	c #F1F2F7",
"; 	c #F3F4F9",
"> 	c #F4F5FA",
", 	c #F5F6FB",
"' 	c #F6F7FC",
") 	c #F6F8FD",
"! 	c #F7F8FD",
"~ 	c #F7F7FC",
"{ 	c #F5F7FB",
"] 	c #F2F4F9",
"^ 	c #EDEEF3",
"/ 	c #E1E3E8",
"( 	c #E3E5EA",
"_ 	c #E5E7EC",
": 	c #E6E8EE",
"< 	c #E8EBEF",
"[ 	c #EAECF1",
"} 	c #EDEFF3",
"| 	c #EEF0F5",
"1 	c #EFF1F6",
"2 	c #F5F4FA",
"3 	c #ECF2F7",
"4 	c #F8F9FD",
"5 	c #F6F7FD",
"6 	c #F7F8FC",
"7 	c #F7F9FD",
"8 	c #E5E7EB",
"9 	c #E1E4E8",
"0 	c #E4E7EB",
"a 	c #E8EAEF",
"b 	c #E9ECF1",
"c 	c #EBEDF2",
"d 	c #ECEEF3",
"e 	c #EDF0F5",
"f 	c #F0F2F7",
"g 	c #F8F6FB",
"h 	c #D9EBF0",
"i 	c #7EB9BA",
"j 	c #A8CECF",
"k 	c #CDE1E3",
"l 	c #E4EDF2",
"m 	c #FDFCFF",
"n 	c #F9FAFF",
"o 	c #F6F9FD",
"p 	c #F8FAFE",
"q 	c #E2E4E8",
"r 	c #E0E4E9",
"s 	c #E2E5EA",
"t 	c #E3E7EB",
"u 	c #E5E9ED",
"v 	c #E7EAEF",
"w 	c #E8ECF0",
"x 	c #EAEDF2",
"y 	c #EBEEF3",
"z 	c #EFF2F7",
"A 	c #F9F6FB",
"B 	c #D5EDF1",
"C 	c #4BA6A8",
"D 	c #017572",
"E 	c #00716E",
"F 	c #20807E",
"G 	c #599D9D",
"H 	c #8DB9BA",
"I 	c #B5CFD1",
"J 	c #DAE6E9",
"K 	c #F2F6FA",
"L 	c #F5F8FD",
"M 	c #F5F7FD",
"N 	c #F6F8FC",
"O 	c #F7FAFE",
"P 	c #C5C7CB",
"Q 	c #DEE3E7",
"R 	c #E3E7EC",
"S 	c #E4E9ED",
"T 	c #E6EAEF",
"U 	c #E7EBF0",
"V 	c #E9EDF1",
"W 	c #EAEEF2",
"X 	c #ECEFF4",
"Y 	c #EEF1F6",
"Z 	c #F7F5FA",
"` 	c #D0EAEE",
" .	c #49B5B7",
"..	c #107979",
"+.	c #0D7A77",
"@.	c #0B7977",
"#.	c #087372",
"$.	c #016A69",
"%.	c #016362",
"&.	c #1B6D6C",
"*.	c #387B7A",
"=.	c #B7CED0",
"-.	c #F3F6FB",
";.	c #F5F9FD",
">.	c #F5F8FC",
",.	c #F6FAFE",
"'.	c #CCD5D9",
").	c #D3DBDF",
"!.	c #DFE5E9",
"~.	c #E6EBEF",
"{.	c #E6EBF0",
"].	c #E8ECF1",
"^.	c #E9EDF2",
"/.	c #EAEEF3",
"(.	c #ECF0F4",
"_.	c #EDF1F6",
":.	c #F4F4F9",
"<.	c #D0E9EE",
"[.	c #45BDBE",
"}.	c #108A8A",
"|.	c #137071",
"1.	c #0D7977",
"2.	c #0C7876",
"3.	c #0C7574",
"4.	c #0C706F",
"5.	c #0C6868",
"6.	c #075F5E",
"7.	c #005454",
"8.	c #B8CFD1",
"9.	c #F4F8FD",
"0.	c #F5F7FC",
"a.	c #F8FBFF",
"b.	c #CBD5D9",
"c.	c #CDD8DC",
"d.	c #D1DBDF",
"e.	c #DEE6EB",
"f.	c #E8EDF2",
"g.	c #E9EEF3",
"h.	c #EAEFF4",
"i.	c #ECF0F5",
"j.	c #EEF2F6",
"k.	c #D5EAEE",
"l.	c #3EBCBD",
"m.	c #119C9C",
"n.	c #137777",
"o.	c #147071",
"p.	c #097674",
"q.	c #047270",
"r.	c #026D6C",
"s.	c #006665",
"t.	c #005C5B",
"u.	c #004E4D",
"v.	c #3B7B7B",
"w.	c #DCE7EA",
"x.	c #F4F7FC",
"y.	c #AFB1B4",
"z.	c #CBD6DB",
"A.	c #CCD8DC",
"B.	c #CFDADE",
"C.	c #DDE5EA",
"D.	c #E8EEF3",
"E.	c #E9EFF4",
"F.	c #ECF1F6",
"G.	c #DFEEF2",
"H.	c #3ABABC",
"I.	c #11A9A9",
"J.	c #148686",
"K.	c #147070",
"L.	c #0E6E6E",
"M.	c #3E908F",
"N.	c #68A9A9",
"O.	c #77AFB1",
"P.	c #85B5B7",
"Q.	c #93BABC",
"R.	c #9DBEBF",
"S.	c #CBDCDE",
"T.	c #F0F5FA",
"U.	c #F4F8FB",
"V.	c #F7FBFF",
"W.	c #B3B6B9",
"X.	c #C9D8DC",
"Y.	c #CBD9DD",
"Z.	c #CBD8DC",
"`.	c #CBDADE",
" +	c #D7E2E6",
".+	c #E6EEF2",
"++	c #E9F0F4",
"@+	c #EBF1F6",
"#+	c #DAECF0",
"$+	c #17B0B0",
"%+	c #149999",
"&+	c #157373",
"*+	c #127171",
"=+	c #006E71",
"-+	c #A1CDD0",
";+	c #F4F6FC",
">+	c #F2F6FB",
",+	c #F1F6FA",
"'+	c #F2F7FB",
")+	c #F2F6FC",
"!+	c #F3F8FB",
"~+	c #F4F8FC",
"{+	c #F3F7FD",
"]+	c #B4B7BA",
"^+	c #C7D9DD",
"/+	c #C9D8DD",
"(+	c #CAD9DE",
"_+	c #CADADE",
":+	c #CBDADF",
"<+	c #CFDEE2",
"[+	c #E0EAEE",
"}+	c #DAECF1",
"|+	c #1AA9A9",
"1+	c #138080",
"2+	c #117576",
"3+	c #138A8C",
"4+	c #099697",
"5+	c #A4D6DA",
"6+	c #EEF4F8",
"7+	c #EEF4F9",
"8+	c #F0F5F9",
"9+	c #F1F7FB",
"0+	c #F3F8FC",
"a+	c #F3F8FD",
"b+	c #F4F9FD",
"c+	c #B4B7BB",
"d+	c #C6D9DD",
"e+	c #C8DADE",
"f+	c #C9DADE",
"g+	c #CADBDF",
"h+	c #CBDBDF",
"i+	c #D4E2E6",
"j+	c #D1E5EA",
"k+	c #1B9697",
"l+	c #107A7B",
"m+	c #169495",
"n+	c #1B9E9E",
"o+	c #0C9696",
"p+	c #9ACED1",
"q+	c #DEEAED",
"r+	c #DDE9EE",
"s+	c #DEEAEE",
"t+	c #E6EFF3",
"u+	c #EFF5F9",
"v+	c #F0F6FA",
"w+	c #F1F7FC",
"x+	c #F2F8FC",
"y+	c #F4FAFE",
"z+	c #B0B5B8",
"A+	c #C5DADE",
"B+	c #C6DADE",
"C+	c #C7DBDF",
"D+	c #C8DBDF",
"E+	c #C9DCE0",
"F+	c #CADCE0",
"G+	c #CBDDE2",
"H+	c #CCDDE1",
"I+	c #BED5DA",
"J+	c #167174",
"K+	c #117677",
"L+	c #167D7D",
"M+	c #177E7E",
"N+	c #127C7C",
"O+	c #479091",
"P+	c #619A9C",
"Q+	c #60989B",
"R+	c #5F9799",
"S+	c #5A9698",
"T+	c #A3C6CA",
"U+	c #EEF5F9",
"V+	c #EFF6FA",
"W+	c #F0F7FC",
"X+	c #EDF4F8",
"Y+	c #EAF2F6",
"Z+	c #E9F3F7",
"`+	c #A9B0B4",
" @	c #C3D9DD",
".@	c #C4DADE",
"+@	c #C5DBDF",
"@@	c #C6DBDF",
"#@	c #C7DCDF",
"$@	c #C7DCE0",
"%@	c #C9DDE1",
"&@	c #CADDE1",
"*@	c #CBDFE3",
"=@	c #BFD6DA",
"-@	c #166162",
";@	c #0F6061",
">@	c #136768",
",@	c #146D6D",
"'@	c #167171",
")@	c #086464",
"!@	c #025D5D",
"~@	c #025D5C",
"{@	c #035C5C",
"]@	c #005E5F",
"^@	c #72AAAD",
"/@	c #E9F2F6",
"(@	c #E9F2F7",
"_@	c #E9F1F5",
":@	c #E8F1F6",
"<@	c #E7F1F5",
"[@	c #E6F0F4",
"}@	c #E4EFF3",
"|@	c #E3EEF2",
"1@	c #E7F2F6",
"2@	c #C2DADE",
"3@	c #C3DBDF",
"4@	c #C4DBDF",
"5@	c #C5DCE0",
"6@	c #C6DDE0",
"7@	c #C7DDE1",
"8@	c #C8DEE1",
"9@	c #C9DFE3",
"0@	c #BDD7DA",
"a@	c #176566",
"b@	c #116465",
"c@	c #146C6C",
"d@	c #167373",
"e@	c #106A6A",
"f@	c #0E6565",
"g@	c #0F696A",
"h@	c #0A6B6B",
"i@	c #72AAAC",
"j@	c #E4EFF4",
"k@	c #DEECF0",
"l@	c #DFECF0",
"m@	c #E0EDF1",
"n@	c #E1EEF2",
"o@	c #E2EEF2",
"p@	c #E3EFF3",
"q@	c #E6F2F6",
"r@	c #A8B1B4",
"s@	c #C1DADF",
"t@	c #C1DBDF",
"u@	c #C2DBDF",
"v@	c #C3DCE0",
"w@	c #C4DCE0",
"x@	c #C4DDE1",
"y@	c #C6DDE1",
"z@	c #C7DEE2",
"A@	c #C8DFE3",
"B@	c #BCD7DB",
"C@	c #1A696B",
"D@	c #14686A",
"E@	c #176F70",
"F@	c #167272",
"G@	c #0E6464",
"H@	c #0F6869",
"I@	c #0F6C6D",
"J@	c #69A4A5",
"K@	c #DAEAEE",
"L@	c #DBEAEF",
"M@	c #DDEBEF",
"N@	c #DEEDF1",
"O@	c #DFEDF1",
"P@	c #E0EEF2",
"Q@	c #E2EEF3",
"R@	c #C0DBDE",
"S@	c #C0DBDF",
"T@	c #C1DCDF",
"U@	c #C2DCE0",
"V@	c #C2DDE0",
"W@	c #C3DDE1",
"X@	c #C4DEE2",
"Y@	c #C6DEE2",
"Z@	c #C7E0E4",
"`@	c #BBD7DB",
" #	c #1E6D6F",
".#	c #196E6F",
"+#	c #1B7475",
"@#	c #1A7676",
"##	c #197676",
"$#	c #106B6B",
"%#	c #0B6767",
"&#	c #05696A",
"*#	c #136E6F",
"=#	c #539798",
"-#	c #B1D1D4",
";#	c #DCECF0",
">#	c #D9EAEE",
",#	c #DBEBEF",
"'#	c #DDEBF0",
")#	c #E0EFF3",
"!#	c #E1EEF3",
"~#	c #E2EFF4",
"{#	c #E5F2F6",
"]#	c #BEDBE0",
"^#	c #BFDCDF",
"/#	c #C0DDE0",
"(#	c #C0DDE1",
"_#	c #C1DDE1",
":#	c #C2DEE1",
"<#	c #C3DEE2",
"[#	c #C4DFE2",
"}#	c #C6E0E4",
"|#	c #BBD8DB",
"1#	c #217172",
"2#	c #1D7273",
"3#	c #20797A",
"4#	c #1F7C7C",
"5#	c #1D7A7A",
"6#	c #177272",
"7#	c #4A969A",
"8#	c #99C4C7",
"9#	c #D1E7EB",
"0#	c #DAEBEF",
"a#	c #D7E9ED",
"b#	c #D7EAEE",
"c#	c #DBECF0",
"d#	c #DDEDF1",
"e#	c #DEEEF2",
"f#	c #E1F0F4",
"g#	c #A7B1B4",
"h#	c #BCDCDF",
"i#	c #BEDDE0",
"j#	c #BEDCE1",
"k#	c #BFDDE1",
"l#	c #C0DEE2",
"m#	c #C1DEE2",
"n#	c #C2DFE3",
"o#	c #C3DFE3",
"p#	c #C5E1E4",
"q#	c #BAD9DC",
"r#	c #227274",
"s#	c #1F7476",
"t#	c #237B7C",
"u#	c #247F80",
"v#	c #0D7878",
"w#	c #95C9CC",
"x#	c #DBEDF0",
"y#	c #D4E9EC",
"z#	c #D3E8EC",
"A#	c #D5EAED",
"B#	c #D8EBEF",
"C#	c #D9EBEF",
"D#	c #DCEDF1",
"E#	c #DDEEF2",
"F#	c #DFEFF3",
"G#	c #E1EFF3",
"H#	c #E4F3F7",
"I#	c #BBDDE0",
"J#	c #BCDDE1",
"K#	c #BDDDE1",
"L#	c #BEDEE1",
"M#	c #BFDEE2",
"N#	c #C1DFE3",
"O#	c #C2E0E3",
"P#	c #C3E1E5",
"Q#	c #B9D9DD",
"R#	c #227275",
"S#	c #207475",
"T#	c #237C7C",
"U#	c #1C8284",
"V#	c #06898A",
"W#	c #92CCCF",
"X#	c #CFE6EA",
"Y#	c #D0E8EC",
"Z#	c #D2E8EC",
"`#	c #D4E9ED",
" $	c #D6EAEE",
".$	c #D9ECEF",
"+$	c #DBEEF2",
"@$	c #DEEFF3",
"#$	c #DFF0F4",
"$$	c #E0F0F4",
"%$	c #A6B1B4",
"&$	c #BBDCE1",
"*$	c #BCDEE1",
"=$	c #BDDEE2",
"-$	c #BEDFE2",
";$	c #BFDFE2",
">$	c #C0DFE3",
",$	c #C1E1E3",
"'$	c #B8D9DD",
")$	c #237375",
"!$	c #1D7476",
"~$	c #188183",
"{$	c #0A9797",
"]$	c #96D0D2",
"^$	c #CFE7EB",
"/$	c #D2E9EC",
"($	c #D3E9ED",
"_$	c #D6EBEE",
":$	c #D7EBEF",
"<$	c #D8EDF0",
"[$	c #D9ECF0",
"}$	c #DCEEF2",
"|$	c #DDEFF3",
"1$	c #E3F3F7",
"2$	c #BADDE0",
"3$	c #BBDDE1",
"4$	c #BBDEE1",
"5$	c #BDDFE2",
"6$	c #BFE0E3",
"7$	c #C1E0E4",
"8$	c #C4E2E5",
"9$	c #B7D9DD",
"0$	c #187173",
"a$	c #137F82",
"b$	c #1A999B",
"c$	c #1EA4A4",
"d$	c #0F9C9C",
"e$	c #92CED1",
"f$	c #C8E5E8",
"g$	c #CAE5E9",
"h$	c #CCE6EA",
"i$	c #D1E9ED",
"j$	c #D3EAEE",
"k$	c #D6EBEF",
"l$	c #D8ECF1",
"m$	c #DAEDF1",
"n$	c #DFEFF4",
"o$	c #A6B2B4",
"p$	c #BADEE1",
"q$	c #BEE0E3",
"r$	c #B9DCE0",
"s$	c #B4DADE",
"t$	c #B1D9DC",
"u$	c #ABD4D9",
"v$	c #54A2A5",
"w$	c #1C999B",
"x$	c #1BA6A6",
"y$	c #21A8A8",
"z$	c #0F9D9C",
"A$	c #89C9CC",
"B$	c #B9DDE0",
"C$	c #C3E2E6",
"D$	c #C6E3E7",
"E$	c #C8E4E8",
"F$	c #CBE6E9",
"G$	c #CEE7EB",
"H$	c #D2E9ED",
"I$	c #D5EBEF",
"J$	c #D9EDF1",
"K$	c #E0F1F5",
"L$	c #E3F3F8",
"M$	c #A6B2B5",
"N$	c #BADDE1",
"O$	c #BCDEE2",
"P$	c #B7DBDF",
"Q$	c #ADD6DA",
"R$	c #A3D1D5",
"S$	c #9FCED2",
"T$	c #9FCED1",
"U$	c #9FCDD0",
"V$	c #A0CDD1",
"W$	c #A0CDD0",
"X$	c #9DCBCE",
"Y$	c #83C2C5",
"Z$	c #47B2B3",
"`$	c #19A3A3",
" %	c #0B9A99",
".%	c #81C1C3",
"+%	c #ADD1D4",
"@%	c #AFD2D5",
"#%	c #B1D3D6",
"$%	c #B4D5D9",
"%%	c #B7D7DA",
"&%	c #BAD9DD",
"*%	c #BDDBDF",
"=%	c #BFDDE0",
"-%	c #C6E1E5",
";%	c #C9E4E7",
">%	c #CCE6E9",
",%	c #DFF1F5",
"'%	c #A4B1B4",
")%	c #ACD5D8",
"!%	c #9CCED1",
"~%	c #92C8CB",
"{%	c #91C7CA",
"]%	c #92C6C9",
"^%	c #93C5C8",
"/%	c #95C4C7",
"(%	c #95C3C6",
"_%	c #95C2C5",
":%	c #96BFC2",
"<%	c #95BDC0",
"[%	c #93BABD",
"}%	c #8FB5B8",
"|%	c #6BAAAC",
"1%	c #1D9D9D",
"2%	c #6DABAE",
"3%	c #93B2B5",
"4%	c #97B5B8",
"5%	c #9BB9BC",
"6%	c #A0BDC0",
"7%	c #A4C2C5",
"8%	c #A9C7CA",
"9%	c #AFCBCF",
"0%	c #B4D0D4",
"a%	c #B8D4D7",
"b%	c #BDD9DC",
"c%	c #C5DFE3",
"d%	c #C8E2E6",
"e%	c #CBE4E8",
"f%	c #CEE6EA",
"g%	c #D3EBEF",
"h%	c #9BABAE",
"i%	c #88C4C7",
"j%	c #8AC4C7",
"k%	c #8CC5C8",
"l%	c #8EC4C7",
"m%	c #90C5C8",
"n%	c #91C4C7",
"o%	c #91C3C6",
"p%	c #92C2C5",
"q%	c #91BEC1",
"r%	c #90BCBF",
"s%	c #8FB7BA",
"t%	c #8BB1B4",
"u%	c #86A9AB",
"v%	c #82A0A3",
"w%	c #709799",
"x%	c #729799",
"y%	c #7E9B9E",
"z%	c #87A4A6",
"A%	c #8FADB0",
"B%	c #98B6B9",
"C%	c #9FBDC0",
"D%	c #A4C3C6",
"E%	c #ABC8CC",
"F%	c #B1CED1",
"G%	c #B5D2D6",
"H%	c #BAD7DA",
"I%	c #BFDADE",
"J%	c #C3DEE1",
"K%	c #C9E3E7",
"L%	c #CCE5E9",
"M%	c #99AAAD",
"N%	c #86C2C5",
"O%	c #8AC5C8",
"P%	c #8CC5C9",
"Q%	c #8EC6C9",
"R%	c #93C8CB",
"S%	c #95C8CB",
"T%	c #97C8CB",
"U%	c #98C8CB",
"V%	c #99C7CA",
"W%	c #9BC7CA",
"X%	c #98C6C9",
"Y%	c #8CC0C3",
"Z%	c #83BCBF",
"`%	c #99C5C8",
" &	c #A2C9CC",
".&	c #A4CACD",
"+&	c #A8CCCF",
"@&	c #ABCED1",
"#&	c #AED0D4",
"$&	c #B4D6D9",
"%&	c #B7D8DB",
"&&	c #BBDBDE",
"*&	c #C4E1E4",
"=&	c #C6E3E6",
"-&	c #C9E4E8",
";&	c #CBE5E9",
">&	c #D0E9ED",
",&	c #94A6A9",
"'&	c #83C0C3",
")&	c #8AC5C9",
"!&	c #8CC7CA",
"~&	c #8EC7CB",
"{&	c #90C8CC",
"]&	c #93C9CD",
"^&	c #95CBCE",
"/&	c #98CCCF",
"(&	c #9ACDD0",
"_&	c #9BCDD0",
":&	c #96CCCF",
"<&	c #8FCACD",
"[&	c #8FCBCD",
"}&	c #90CACD",
"|&	c #A1D1D4",
"1&	c #A9D5D8",
"2&	c #ABD6D9",
"3&	c #AED7DA",
"4&	c #B1D8DC",
"5&	c #B3D9DD",
"6&	c #B5DADE",
"7&	c #B8DCE0",
"8&	c #BFE0E4",
"9&	c #C2E1E5",
"0&	c #C7E4E8",
"a&	c #C9E5E9",
"b&	c #CEEAED",
"c&	c #819293",
"d&	c #7FBABD",
"e&	c #85C3C6",
"f&	c #87C3C7",
"g&	c #89C5C8",
"h&	c #8CC6C9",
"i&	c #92CACD",
"j&	c #8FC7CA",
"k&	c #8FC8CB",
"l&	c #93CBCE",
"m&	c #95CDD0",
"n&	c #96CDD0",
"o&	c #A7D4D7",
"p&	c #AAD5D8",
"q&	c #ACD6DA",
"r&	c #AED7DB",
"s&	c #B3DADD",
"t&	c #B5DBDF",
"u&	c #B7DCE0",
"v&	c #BFDFE3",
"w&	c #C0E1E4",
"x&	c #C2E2E6",
"y&	c #C5E3E6",
"z&	c #CAE7EA",
"A&	c #81C0C3",
"B&	c #84C2C5",
"C&	c #86C3C6",
"D&	c #88C5C8",
"E&	c #8BC5C8",
"F&	c #8DC6C9",
"G&	c #8FC8CA",
"H&	c #91C9CC",
"I&	c #93C9CC",
"J&	c #91C8CB",
"K&	c #98CDD0",
"L&	c #99CDD1",
"M&	c #9FD0D3",
"N&	c #A3D2D5",
"O&	c #A5D3D7",
"P&	c #A8D4D8",
"Q&	c #AAD5D9",
"R&	c #ADD7DA",
"S&	c #AFD8DB",
"T&	c #B2D9DC",
"U&	c #B4DBDE",
"V&	c #B6DCDF",
"W&	c #BDDFE3",
"X&	c #C1E1E4",
"Y&	c #C7E6EA",
"Z&	c #A9C4C6",
"`&	c #76B3B6",
" *	c #81C1C5",
".*	c #87C4C7",
"+*	c #8DC6CA",
"@*	c #90C7CA",
"#*	c #93CACD",
"$*	c #97CCCF",
"%*	c #9DCED2",
"&*	c #9FCFD3",
"**	c #A1D0D4",
"=*	c #A4D2D6",
"-*	c #A6D4D7",
";*	c #B0D8DC",
">*	c #B5DBDE",
",*	c #C0E2E5",
"'*	c #586769",
")*	c #73AFB2",
"!*	c #7FC0C3",
"~*	c #81C1C4",
"{*	c #82C2C5",
"]*	c #84C3C6",
"^*	c #89C4C7",
"/*	c #8EC8CB",
"(*	c #96CBCE",
"_*	c #A2D2D4",
":*	c #A4D3D6",
"<*	c #B4DADD",
"[*	c #BBE0E4",
"}*	c #B4D7DA",
"|*	c #708486",
"1*	c #63989B",
"2*	c #78B7BA",
"3*	c #7FC2C5",
"4*	c #81C3C5",
"5*	c #83C3C6",
"6*	c #86C4C7",
"7*	c #87C5C8",
"8*	c #89C6C9",
"9*	c #8BC7CA",
"0*	c #8EC9CC",
"a*	c #92CBCE",
"b*	c #94CCCF",
"c*	c #97CDD0",
"d*	c #99CED1",
"e*	c #9CCFD3",
"f*	c #9FD1D5",
"g*	c #A1D3D6",
"h*	c #A4D4D7",
"i*	c #A7D5D9",
"j*	c #AAD6DA",
"k*	c #ACD8DB",
"l*	c #AFD9DC",
"m*	c #B2DBDF",
"n*	c #B3DBDF",
"o*	c #9BBCBF",
"p*	c #546567",
"q*	c #59888A",
"r*	c #5C8C8F",
"s*	c #5F8D90",
"t*	c #608E91",
"u*	c #619092",
"v*	c #639093",
"w*	c #659193",
"x*	c #669294",
"y*	c #689295",
"z*	c #6A9396",
"A*	c #6C9496",
"B*	c #6D9698",
"C*	c #6F9699",
"D*	c #71979A",
"E*	c #73989B",
"F*	c #75999C",
"G*	c #779A9C",
"H*	c #799B9E",
"I*	c #7A9C9E",
"J*	c #7A999B",
"K*	c #6C8789",
"          . + @ # $ % & * = - ; > , ' ) ! ! ~ ! ! { ] ^           ",
"      / ( _ : < [ % } | 1 - 2 3 , 4 ! ) ' ' 5 ) 6 7 7 7 { 8       ",
"    9 ( 0 @ a b c d e 1 f g h i j k l 4 m n ) 5 ' ) o 6 7 p q     ",
"  r s t u v w x y & | z A B C D E F G H I J K ) L M o ) N o O P   ",
"  Q R S T U V W X e Y Z `  ...+.@.#.$.%.&.*.=.-.L ) ) ;.L >.,.&   ",
"'.).!.~.{.].^./.(._.:.<.[.}.|.1.2.3.4.5.6.7.8.>.9.0.L L o ) >.a.  ",
"b.c.d.e.f.f.g.h.i.j.k.l.m.n.o.p.q.r.s.t.u.v.w.;.>.L x.L L ;.N a.y.",
"z.A.c.B.C.D.E.h.F.G.H.I.J.K.L.M.N.O.P.Q.R.S.T.x.U.x.9.x.M L ;.V.W.",
"X.Y.Z.Y.`. +.+++@+#+$+%+&+*+=+-+;+-.K >+>+>+,+'+)+!+~+{+{+x.L V.]+",
"^+/+(+_+:+_+<+[+++}+|+1+2+3+4+5+6+6+7+8+T.8+T.,+9+)+'+0+{+a+b+V.c+",
"d+^+e+f+g+g+h+g+i+j+k+l+m+n+o+p+q+r+s+s+t+u+u+T.v+9+w+0+0+a+x+y+z+",
"A+B+B+C+D+E+F+G+H+I+J+K+L+M+N+O+P+Q+R+S+T+9+U+V+v+9+W+v+u+X+Y+Z+`+",
" @.@+@@@#@$@%@&@*@=@-@;@>@,@'@)@!@~@{@]@^@v+/@(@_@:@<@[@}@|@|@1@`+",
"2@3@3@4@5@6@7@8@9@0@a@b@c@K.d@e@f@f@g@h@i@j@k@k@l@l@l@m@n@o@p@q@r@",
"s@t@u@v@w@x@y@z@A@B@C@D@E@F@d@e@G@H@I@%.J@n@K@L@M@N@O@P@n@Q@p@q@r@",
"R@S@T@U@V@W@X@Y@Z@`@ #.#+#@###$#%#&#*#=#-#;#>#,#'#N@O@G.)#!#~#{#r@",
"]#^#/#(#_#:#<#[#}#|#1#2#3#4#5#6#7#8#9#0#a#b#>#0#c#d#e#G.)#)#f#{#g#",
"h#i#j#k#l#m#n#o#p#q#r#s#t#u#v#w#x#y#z#y#A#b#B#C##+D#E#G.F#)#G#H#g#",
"I#J#K#L#M#l#N#O#P#Q#R#S#T#U#V#W#X#Y#Z#`#k. $B#.$#++$E#@$F##$$$H#%$",
"&$I#*$=$-$;$>$,$P#'$)$!$~$m+{$]$^$Y#/$($k._$:$<$[$+$}$|$@$F#$$1$%$",
"2$3$4$*$5$6$7$P#8$9$0$a$b$c$d$e$f$g$h$^$i$j$k$l$m$+$}$|$@$n$#$1$o$",
"2$p$4$q$6$5$r$s$t$u$v$w$x$y$z$A$B$4$-$7$C$D$E$F$G$H$I$J$|$#$K$L$M$",
"N$O$P$Q$R$S$T$U$V$W$X$Y$Z$`$ %.%+%@%#%$%%%&%*%=%n#-%;%>%^$($:$,%'%",
")%!%~%{%]%^%/%(%_%:%<%[%}%|%1%2%3%4%5%6%7%8%9%0%a%b%U@c%d%e%f%g%h%",
"i%j%k%l%m%n%o%p%q%r%s%t%u%v%w%x%y%z%A%B%C%D%E%F%G%H%I%J%}#K%L%i$M%",
"N%O%P%Q%{%~%R%S%T%U%V%W%X%Y%Z%`% &.&+&@&#&#%$&%&&&i#N#*&=&-&;&>&,&",
"'&i%)&!&~&{&]&^&/&(&_&:&<&[&}&|&1&2&3&4&5&6&7&N$O$8&9&C$D$0&a&b&c&",
"d&e&f&g&h&~&{&i&^&:&j&k&l&m&n&|&o&p&q&r&4&s&t&u&N$O$v&w&x&y&0&z&  ",
"  A&B&C&D&E&F&G&H&I&J&I&^&K&L&M&N&O&P&Q&R&S&T&U&V&B$4$W&8&X&Y&Z&  ",
"  `& *Y$e&.*g&E&+*@*J&#*^&$*(&%*&***=*-*1&2&r&;*5&>*u&N$O$,*&%'*  ",
"    )*!*~*{*]*f&^*O%F&/*H&#*(*/&_&%*M&_*:*o&Q&q&S&t$<*V&[*}*|*    ",
"      1*2*3*4*5*6*7*8*9*0*}&a*b*c*d*e*f*g*h*i*j*k*l*m*n*o*p*      ",
"            q*r*s*t*u*v*w*x*y*z*A*B*C*D*E*F*G*H*I*J*K*            "};
